<?xml version="1.0" ?><svg data-name="Layer 1" id="Layer_1" viewBox="0 0 32 32" xmlns="http://www.w3.org/2000/svg"><defs><style>.cls-1{fill:#f43b33;}</style></defs><title/><path class="cls-1" d="M11.57,26.07h-.3a9.41,9.41,0,0,0,11.39,0H11.57Z"/><path class="cls-1" d="M22.36,8h.3A9.41,9.41,0,0,0,11.27,8H22.36Z"/><path class="cls-1" d="M6.88,17a11.25,11.25,0,0,1,4.39-9A5.85,5.85,0,0,0,6,14v6a5.85,5.85,0,0,0,5.27,6A11.23,11.23,0,0,1,6.88,17Z"/><path class="cls-1" d="M22.66,8A11.25,11.25,0,0,1,27.05,17a11.23,11.23,0,0,1-4.39,9,5.85,5.85,0,0,0,5.27-6V14A5.85,5.85,0,0,0,22.66,8Z"/><path class="cls-1" d="M20.44,15.59a2.16,2.16,0,0,0,2.07-2.25,2.08,2.08,0,1,0-4.15,0l-3.8,1.92a2,2,0,0,0-1.07-.32,2.26,2.26,0,0,0,0,4.5,2,2,0,0,0,1-.3l3.86,1.95a2.13,2.13,0,0,0,2.05,1.86,2.26,2.26,0,0,0,0-4.5,2.08,2.08,0,0,0-1.89,1.31l-3.18-1.61a2.32,2.32,0,0,0,.2-1,2.51,2.51,0,0,0-.18-.92l3.31-1.68A2,2,0,0,0,20.44,15.59Z"/></svg>